<svg width="28" height="22" viewBox="0 0 28 22" fill="none" xmlns="http://www.w3.org/2000/svg">
<g id="cnbc" clip-path="url(#clip0_4_4060)">
<g id="Group">
<path id="Vector" d="M4.73306 5.00392C3.69393 5.93128 3.31538 8.03251 5.1888 9.26093L12.6635 14.3155L9.03877 6.13138C8.27948 4.20022 6.20195 3.77917 4.7338 5.00392" fill="#868898"/>
<path id="Vector_2" d="M11.1676 1.02516C9.95254 1.04967 8.12812 2.47563 8.94085 4.65334L12.6892 13.3664L14.0063 4.20193C14.3113 1.92471 12.563 0.872984 11.1687 1.02516" fill="#868898"/>
<path id="Vector_3" d="M14.5883 3.852H15.2975C15.2975 3.852 15.6761 3.852 15.7276 4.02795C15.4486 4.25257 14.6885 4.28074 14.7902 5.47988L15.9819 13.3651L19.7042 4.62899C20.4654 2.67809 18.867 1.0491 17.4501 0.99935C17.384 0.99496 17.3175 0.990936 17.2485 0.990936C15.9759 0.990936 14.5178 1.90255 14.5891 3.852" fill="#868898"/>
<path id="Vector_4" d="M19.5536 6.20582L16.0328 14.2904L23.5046 9.20916C25.2269 8.00488 24.9493 6.07997 23.987 5.12812C23.5829 4.68035 22.8406 4.33429 22.0546 4.33429C21.1268 4.33429 20.1318 4.81973 19.5555 6.20472" fill="#868898"/>
<path id="Vector_5" d="M22.669 10.3604L15.6522 15.1921H24.2919C26.0644 15.1921 27.2037 13.3905 26.6971 11.7373C26.3576 10.698 25.3555 9.88262 24.1898 9.8812C23.6996 9.8812 23.1797 10.0275 22.6682 10.3608" fill="#868898"/>
<path id="Vector_6" d="M4.53013 15.1922H13.0425L6.02389 10.3604C4.40247 9.33388 2.57915 9.93459 1.92079 11.6407C1.36411 13.5917 2.75618 15.194 4.53013 15.194" fill="#868898"/>
<path id="Vector_7" d="M1.33435 18.6886C1.33435 19.5113 2.01684 21.009 4.6221 21.009C7.02476 21.009 7.7833 19.9225 7.7833 19.4242H5.92362C5.92362 19.4242 5.8353 20.0827 4.78613 20.0827C3.73698 20.0827 3.45233 19.2186 3.45233 18.7193C3.45233 18.22 3.73624 17.4046 4.78613 17.4046C5.83604 17.4046 5.92362 17.9778 5.92362 17.9778H7.7833C7.7833 17.4788 7.22662 16.4077 4.6221 16.4077C2.01758 16.4077 1.33435 18.0027 1.33435 18.6886Z" fill="#868898"/>
<path id="Vector_8" d="M20.838 18.6886C20.838 19.5113 21.5209 21.009 24.1258 21.009C26.528 21.009 27.287 19.9225 27.287 19.4242H25.4288C25.4288 19.4242 25.3401 20.0827 24.2906 20.0827C23.241 20.0827 22.9545 19.219 22.9545 18.7197C22.9545 18.2203 23.2388 17.4049 24.2906 17.4049C25.3423 17.4049 25.4288 17.9778 25.4288 17.9778H27.2873C27.2873 17.4788 26.7307 16.4077 24.1261 16.4077C21.5216 16.4077 20.8384 18.0027 20.8384 18.6886" fill="#868898"/>
<path id="Vector_9" d="M12.867 16.4845V19.2698L10.7026 16.4845H8.2677V20.8962H9.93696V18.0787L12.0635 20.8962H14.5363V16.4845H12.867Z" fill="#868898"/>
<path id="Vector_10" d="M18.2151 19.8423V19.8481H16.8242V19.0378H18.2151V19.0404C18.512 19.0404 18.7518 19.2204 18.7518 19.4428C18.7518 19.6652 18.512 19.8423 18.2151 19.8423ZM16.8368 17.3426H18.1769V17.3444C18.4041 17.3444 18.5881 17.4908 18.5881 17.6737C18.5881 17.8566 18.4026 18.0029 18.1769 18.0029V18.0048H16.8368V17.3426ZM19.5809 18.5498C19.8848 18.5498 20.5202 18.2023 20.5202 17.5284C20.5202 16.5693 18.708 16.4837 18.43 16.4837H15.09V20.8958H18.43C20.0358 20.8958 20.6809 20.3958 20.6809 19.5606C20.6809 18.7254 19.5809 18.5506 19.5809 18.5506V18.5498Z" fill="#868898"/>
</g>
</g>
<defs>
<clipPath id="clip0_4_4060">
<rect width="26.6906" height="20.0179" fill="white" transform="translate(0.922241 0.991028)"/>
</clipPath>
</defs>
</svg>
