<svg width="57" height="20" viewBox="0 0 57 20" fill="none" xmlns="http://www.w3.org/2000/svg">
<g id="ft" clip-path="url(#clip0_4_4058)">
<path id="Vector" d="M2.55871 6.90852C2.55871 7.61327 2.74321 7.6653 3.52597 7.69418V7.93681H0.489992V7.69992C1.1162 7.69992 1.3007 7.59018 1.3007 6.91432V2.36219C1.3007 1.65743 1.1162 1.59966 0.512356 1.57655V1.34548H5.86306V2.81279H5.60587C5.39341 2.07913 5.13062 1.83651 3.87262 1.83651H2.89977C2.58666 1.83651 2.53634 1.8885 2.53634 2.18311V4.29742H3.65457C4.67215 4.29742 4.88461 4.10678 4.99644 3.4309H5.23127V5.78783H4.99644C4.86225 5.00219 4.47087 4.78267 3.65457 4.78267H2.53634V6.92006L2.55871 6.90852ZM8.90462 6.90852C8.90462 7.61327 9.08354 7.6653 9.87191 7.69418V7.93681H6.67379V7.69992C7.43415 7.69992 7.64664 7.59018 7.64664 6.91432V2.36219C7.64664 1.65743 7.49007 1.59966 6.67379 1.57655V1.34548H9.87191V1.59388C9.1115 1.59388 8.90462 1.69787 8.90462 2.37953V6.90852ZM16.503 2.50084C16.503 1.84806 16.3464 1.57655 15.614 1.49568V1.25305H17.8951V1.49568C17.1851 1.57655 17.0006 1.84229 17.0006 2.50084V8.04656H16.6763L12.2761 2.78968V6.66013C12.2761 7.31292 12.4326 7.57864 13.1651 7.6653V7.90793H10.8727V7.6653C11.5828 7.58444 11.7673 7.31866 11.7673 6.66013V2.212C11.6844 2.03133 11.5591 1.8749 11.4029 1.75688C11.2467 1.63886 11.0645 1.56297 10.8727 1.53612V1.29349H12.6283L16.4806 5.91492V2.50084H16.503ZM19.9359 5.53365L20.9088 2.90521L21.876 5.53365H19.9359ZM24.5486 7.91367V7.69992C24.0454 7.69992 23.9503 7.50932 23.7099 6.88543L21.4288 1.13752H21.1157L18.7562 7.07029C18.7035 7.24627 18.5995 7.40118 18.4584 7.51388C18.3173 7.62658 18.146 7.69152 17.9678 7.69992V7.94256H20.031V7.69992C19.5837 7.69992 19.3768 7.59018 19.3768 7.26669C19.4628 6.85199 19.5845 6.44598 19.7402 6.05356H22.0773C22.246 6.44368 22.3771 6.85003 22.4687 7.26669C22.4687 7.59018 22.2339 7.69992 21.7866 7.69992V7.94256L24.5486 7.91367ZM30.8219 2.50084C30.8219 1.84806 30.6653 1.57655 29.9328 1.49568V1.25305H32.214V1.49568C31.504 1.57655 31.3194 1.84229 31.3194 2.50084V8.04656H30.984L26.5837 2.78968V6.66013C26.5837 7.31292 26.7403 7.57864 27.4728 7.6653V7.90793H25.1804V7.6653C25.8905 7.58444 26.0694 7.31866 26.0694 6.66013V2.212C25.9905 2.02951 25.867 1.8713 25.7112 1.75283C25.5554 1.63437 25.3725 1.55969 25.1804 1.53612V1.29349H26.936L30.7883 5.91492L30.8219 2.50084ZM38.9737 6.37129C38.7052 6.91639 38.2903 7.36992 37.7785 7.67731C37.2667 7.98476 36.68 8.13298 36.0887 8.10433C33.992 8.10433 32.734 6.69478 32.734 4.55737C32.7339 4.0973 32.8226 3.64182 32.9946 3.21748C33.1667 2.79315 33.4188 2.40846 33.7362 2.08584C34.0537 1.76322 34.4301 1.50912 34.8436 1.33837C35.2571 1.16762 35.6993 1.08363 36.1446 1.0913C36.7503 1.16629 37.3476 1.30171 37.9282 1.49568C38.1071 1.49568 38.163 1.38592 38.3475 1.0913H38.683L38.8116 3.30959H38.5488C38.1574 2.28132 37.5032 1.52456 36.3683 1.52456C34.8474 1.52456 34.1877 3.2576 34.1877 4.49961C34.1877 6.29041 34.9201 7.50932 36.5472 7.50932C37.0009 7.48346 37.4418 7.34364 37.8315 7.10208C38.2211 6.86051 38.548 6.5244 38.7836 6.12289L38.9737 6.37129ZM42.0656 6.89117C42.0656 7.59598 42.2501 7.64795 43.0385 7.67684V7.91947H39.8403V7.69992C40.6007 7.67104 40.8076 7.59018 40.8076 6.91432V2.36797C40.8076 1.6632 40.6231 1.60544 39.8403 1.58233V1.34548H43.0385V1.59388C42.278 1.59388 42.0656 1.69787 42.0656 2.37953V6.89117ZM45.683 5.53943L46.6559 2.91099L47.6232 5.53943H45.683ZM50.2957 7.91947V7.69992C49.7925 7.69992 49.6919 7.50932 49.4571 6.88543L47.1759 1.14329H46.8684L44.5033 7.07603C44.4496 7.25101 44.3452 7.40467 44.2042 7.51625C44.0632 7.62783 43.8924 7.69193 43.715 7.69992V7.94256H45.7893V7.69992C45.342 7.69992 45.1351 7.59018 45.1351 7.26669C45.2212 6.85199 45.3427 6.44598 45.4986 6.05356H47.8301C48.0006 6.4435 48.1335 6.84986 48.227 7.26669C48.227 7.59018 47.9922 7.69992 47.5449 7.69992V7.94256L50.2957 7.91947ZM50.8548 7.91947V7.69992C51.4587 7.67104 51.6432 7.59018 51.6432 6.91432V2.36219C51.6432 1.65743 51.4587 1.60544 50.8548 1.57655V1.34548H53.8181V1.58811C53.1081 1.58811 52.9291 1.69787 52.9291 2.37375V7.05295C52.9291 7.46309 53.0298 7.59598 53.7398 7.59598C54.8916 7.59598 55.5738 7.38224 56.1217 6.20954H56.3733L55.926 8.00033H50.8157V7.94256L50.8548 7.91947ZM1.85423 18.4563C2.59225 18.4563 2.77117 18.3523 2.77117 17.6707V12.5524H1.98282C1.25039 12.5524 0.937283 12.8817 0.724819 13.7656H0.462036L0.618587 12.0325H6.28238L6.43896 13.7656H6.17617C5.96368 12.847 5.67296 12.5524 4.91816 12.5524H4.12981V17.6707C4.12981 18.3755 4.31432 18.4332 5.04676 18.4563V18.7047H1.95486V18.4563H1.85423ZM9.30159 17.6707C9.30159 18.3755 9.48612 18.4332 10.2689 18.4563V18.7047H7.07076V18.4563C7.83112 18.4563 8.04361 18.3523 8.04361 17.6707V13.1244C8.04361 12.4196 7.85907 12.3618 7.07076 12.3387V12.0903H10.2689V12.3214C9.50846 12.3214 9.30159 12.4311 9.30159 13.107V17.6707ZM17.0341 12.0383H19.2706V12.2809C18.6667 12.2809 18.4878 12.3907 18.4878 13.0666V17.6476C18.4878 18.3523 18.6667 18.4044 19.2706 18.4332V18.6759H16.3409V18.4332C16.9726 18.4332 17.1515 18.3234 17.1515 17.6476V12.9684L14.9989 18.7914H14.6635L12.5388 12.9684V17.4627C12.5388 18.1097 12.6954 18.3812 13.4279 18.4621V18.7105H11.1243V18.4621C11.8344 18.3812 12.0133 18.1155 12.0133 17.4627V12.8991C12.0133 12.4427 11.8344 12.2752 11.1243 12.2752V12.0325H13.4558L15.1667 16.654L17.0341 12.0383ZM20.154 18.6759V18.4332C20.7578 18.4332 20.9368 18.3234 20.9368 17.6476V13.1244C20.9368 12.4196 20.7578 12.3618 20.154 12.3387V12.0903H25.5215V13.5576H25.2587C25.0518 12.824 24.789 12.5813 23.531 12.5813H22.5582C22.2395 12.5813 22.1891 12.6333 22.1891 12.928V15.0423H23.3074C24.3305 15.0423 24.5374 14.8516 24.6492 14.1757H24.8841V16.5327H24.6492C24.5207 15.747 24.1237 15.5563 23.3074 15.5563H22.1891V17.8671C22.1891 18.2773 22.2954 18.4101 23.4472 18.4101C24.5989 18.4101 25.281 18.1964 25.8346 17.0237H26.0694L25.6221 18.7972H20.0981V18.6759H20.154ZM26.9752 16.5962H27.21C27.4728 17.4627 28.3282 18.4101 29.2563 18.4101C29.4028 18.4245 29.5505 18.406 29.6895 18.356C29.8284 18.306 29.9553 18.2256 30.0614 18.1203C30.1675 18.015 30.2505 17.8873 30.3045 17.746C30.3586 17.6045 30.3824 17.4528 30.3745 17.3009C30.3745 15.7586 27.0199 15.487 27.0199 13.5923C27.0459 13.1132 27.2524 12.6636 27.5951 12.3397C27.9378 12.0159 28.3895 11.8434 28.8538 11.8592C29.821 11.8592 30.1621 12.2059 30.5814 12.2059C30.6704 12.2059 30.7558 12.1693 30.8187 12.1043C30.8816 12.0393 30.9169 11.9512 30.9169 11.8592H31.1517V14.0544H30.9169C30.8379 13.6074 30.6179 13.2001 30.2911 12.896C29.9644 12.5919 29.5494 12.4081 29.1109 12.3734C28.9836 12.3593 28.8548 12.3736 28.7332 12.4151C28.6115 12.4567 28.4999 12.5245 28.4057 12.6142C28.3115 12.7038 28.2369 12.8133 28.1869 12.9351C28.1369 13.057 28.1127 13.1885 28.1158 13.3208C28.1158 14.6783 31.4704 14.7072 31.4704 17.0584C31.4653 17.3178 31.4086 17.5733 31.3037 17.8091C31.1988 18.0449 31.048 18.2558 30.8607 18.4287C30.6734 18.6016 30.4537 18.7328 30.2152 18.8141C29.9767 18.8954 29.7245 18.925 29.4744 18.9012C28.3561 18.9012 28.0598 18.4968 27.6125 18.4968C27.456 18.4968 27.3498 18.6065 27.2771 18.8434H26.9416L26.9752 16.5962Z" fill="#868898"/>
</g>
<defs>
<clipPath id="clip0_4_4058">
<rect width="56.7175" height="18.3498" fill="white" transform="translate(0.204712 0.825104)"/>
</clipPath>
</defs>
</svg>
