<svg width="16" height="16" viewBox="0 0 16 16" fill="none" xmlns="http://www.w3.org/2000/svg">
<g id="insights">
<g id="Vector">
<path d="M14 5.66668C13.0333 5.66668 12.4933 6.62668 12.7133 7.34001L10.3466 9.71334C10.1466 9.65334 9.85329 9.65334 9.65329 9.71334L7.95329 8.01334C8.17996 7.30001 7.63996 6.33334 6.66663 6.33334C5.69996 6.33334 5.15329 7.29334 5.37996 8.01334L2.33996 11.0467C1.62663 10.8267 0.666626 11.3667 0.666626 12.3333C0.666626 13.0667 1.26663 13.6667 1.99996 13.6667C2.96663 13.6667 3.50663 12.7067 3.28663 11.9933L6.31996 8.95334C6.51996 9.01334 6.81329 9.01334 7.01329 8.95334L8.71329 10.6533C8.48663 11.3667 9.02663 12.3333 9.99996 12.3333C10.9666 12.3333 11.5133 11.3733 11.2866 10.6533L13.66 8.28668C14.3733 8.50668 15.3333 7.96668 15.3333 7.00001C15.3333 6.26668 14.7333 5.66668 14 5.66668Z" fill="#5167F6"/>
<path d="M9.99996 6.33334L10.6266 4.95334L12 4.33334L10.6266 3.71334L9.99996 2.33334L9.38663 3.71334L7.99996 4.33334L9.38663 4.95334L9.99996 6.33334Z" fill="#5167F6"/>
<path d="M2.33329 7.66668L2.66663 6.33334L3.99996 6.00001L2.66663 5.66668L2.33329 4.33334L1.99996 5.66668L0.666626 6.00001L1.99996 6.33334L2.33329 7.66668Z" fill="#5167F6"/>
</g>
</g>
</svg>
