<svg width="16" height="16" viewBox="0 0 16 16" fill="none" xmlns="http://www.w3.org/2000/svg">
<g id="today">
<path id="Vector" d="M12.6667 2.66668H12V2.00001C12 1.63334 11.7 1.33334 11.3333 1.33334C10.9667 1.33334 10.6667 1.63334 10.6667 2.00001V2.66668H5.33333V2.00001C5.33333 1.63334 5.03333 1.33334 4.66667 1.33334C4.3 1.33334 4 1.63334 4 2.00001V2.66668H3.33333C2.59333 2.66668 2.00667 3.26668 2.00667 4.00001L2 13.3333C2 14.0667 2.59333 14.6667 3.33333 14.6667H12.6667C13.4 14.6667 14 14.0667 14 13.3333V4.00001C14 3.26668 13.4 2.66668 12.6667 2.66668ZM12 13.3333H4C3.63333 13.3333 3.33333 13.0333 3.33333 12.6667V6.00001H12.6667V12.6667C12.6667 13.0333 12.3667 13.3333 12 13.3333ZM5.33333 7.33334H7.33333C7.7 7.33334 8 7.63334 8 8.00001V10C8 10.3667 7.7 10.6667 7.33333 10.6667H5.33333C4.96667 10.6667 4.66667 10.3667 4.66667 10V8.00001C4.66667 7.63334 4.96667 7.33334 5.33333 7.33334Z" fill="#5167F6"/>
</g>
</svg>
