<svg width="16" height="16" viewBox="0 0 16 16" fill="none" xmlns="http://www.w3.org/2000/svg">
<g id="track_changes">
<path id="Vector" d="M12.2046 3.77794C11.9646 4.01794 11.9446 4.39128 12.1579 4.65794C13.1246 5.87128 13.6313 7.53128 13.1779 9.27128C12.6513 11.3046 11.0579 12.8246 9.03793 13.2313C5.63793 13.9046 2.65793 11.2779 2.65793 7.99128C2.65793 5.27128 4.69127 3.03128 7.3246 2.70461V4.05128C5.23793 4.40461 3.7046 6.35794 4.03793 8.60461C4.29793 10.3446 5.7446 11.7446 7.49127 11.9579C9.91793 12.2579 11.9913 10.3646 11.9913 7.99128C11.9913 7.15794 11.7379 6.39128 11.3046 5.75128C11.0779 5.41794 10.5913 5.39794 10.3046 5.67794L10.2979 5.68461C10.0713 5.91128 10.0513 6.26461 10.2246 6.53128C10.6246 7.14461 10.7846 7.93128 10.5513 8.74461C10.2913 9.65794 9.5246 10.3846 8.59127 10.5913C6.85793 10.9713 5.3246 9.66461 5.3246 7.99128C5.3246 6.75128 6.17793 5.71794 7.3246 5.41794V6.84461C6.9246 7.07794 6.65793 7.49794 6.65793 7.99128C6.65793 8.72461 7.25793 9.32461 7.99127 9.32461C8.7246 9.32461 9.3246 8.72461 9.3246 7.99128C9.3246 7.49794 9.05793 7.07128 8.65793 6.84461V1.79794C8.65793 1.53794 8.4446 1.32461 8.1846 1.32461C4.61127 1.19128 1.53127 4.03128 1.33793 7.59128C1.09793 11.9579 4.9446 15.4713 9.3446 14.5246C11.9313 13.9713 13.9313 11.9913 14.5113 9.41127C14.9846 7.30461 14.3779 5.30461 13.1979 3.83128C12.9513 3.51794 12.4846 3.49794 12.2046 3.77794Z" fill="#5167F6"/>
</g>
</svg>
