<svg width="35" height="20" viewBox="0 0 35 20" fill="none" xmlns="http://www.w3.org/2000/svg">
<g id="wsj" clip-path="url(#clip0_4_4056)">
<path id="Vector" d="M6.5078 1.17836V1.5331L6.83279 1.61135C7.34863 1.73655 7.41056 2.04434 7.61173 3.00944L8.12758 5.73258L6.67803 13.6777L4.68684 3.69283C4.45987 2.59731 4.38765 1.7835 5.20269 1.60613L5.57926 1.52788V1.17836H0.86438V1.5331L1.34412 1.64786C1.82386 1.77307 2.02504 2.0026 2.35003 3.50503L5.54831 18.8162H6.37368L8.51447 7.25068L10.8874 18.8162H11.5425L14.6376 3.97975C14.9884 2.27388 15.1535 1.78872 15.7467 1.63221L16.2265 1.50701V1.17836H12.729V1.5331L13.2448 1.63743C13.998 1.78871 14.1785 2.27388 13.8226 4.24581L11.9397 13.6881L10.031 3.70327C9.82471 2.71208 9.70092 1.79393 10.5469 1.61656L11.0989 1.51223V1.15749L6.5078 1.17836ZM28.9164 1.22531V1.58526L29.5457 1.73655C30.0977 1.86175 30.3247 2.0652 30.3247 2.7799V15.1332C30.3247 16.5104 30.3247 18.3154 28.9164 18.3154C28.1117 18.3154 27.4823 17.6059 27.5288 17.1208C27.5803 16.3331 28.9422 16.38 29.0144 15.1071C29.0438 14.9475 29.0398 14.7834 29.0028 14.6255C28.9657 14.4675 28.8964 14.3191 28.7992 14.1899C28.702 14.0607 28.5792 13.9534 28.4385 13.8751C28.2979 13.7968 28.1426 13.7491 27.9827 13.7351C27.2038 13.6308 26.2443 14.2933 26.2185 15.6184C26.2185 17.3242 27.3018 18.8788 29.1898 18.8788C31.279 18.8788 32.646 17.4494 32.646 14.7054V2.80598C32.646 2.09129 32.8214 1.86175 33.3218 1.76263L33.8789 1.57483V1.22009L28.9164 1.22531ZM20.4306 1.12619C18.2898 1.12619 17.0827 2.9364 17.0827 5.29959C17.0827 9.70778 22.7004 11.4137 22.7004 15.3888C22.7004 17.272 21.9163 18.3154 20.7866 18.3154C19.0997 18.3154 17.8926 16.2548 17.5883 12.9682H17.2117V18.7693H17.516C17.7688 17.9346 18.0938 17.8511 18.3724 17.8511C18.8522 17.8511 19.3525 18.8684 20.8124 18.8684C23.0563 18.8684 24.5162 16.9121 24.5162 14.2098C24.5162 8.90962 18.9192 7.61064 18.9192 3.81803C18.9192 2.95205 19.172 1.67917 20.4306 1.67917C22.2464 1.67917 23.0099 4.09452 23.3297 7.02634H23.7063V1.22009H23.4071C23.2781 1.77828 23.0512 2.0339 22.7262 2.0339C22.1433 2.0339 21.8492 1.12097 20.4564 1.12097L20.4306 1.12619ZM24.4852 6.12384V6.18644V6.13428V6.12384Z" fill="#868898"/>
</g>
<defs>
<clipPath id="clip0_4_4056">
<rect width="33.3632" height="18.3498" fill="white" transform="translate(0.841553 0.825104)"/>
</clipPath>
</defs>
</svg>
